<svg width="1058" height="785" viewBox="0 0 1058 785" fill="none" xmlns="http://www.w3.org/2000/svg">
<g id="undraw_Ride_a_bicycle_2yok 1" clip-path="url(#clip0)">
<path id="Vector" opacity="0.5" d="M189.802 131.432C184.322 138.082 182.212 147.432 179.852 156.222C160.852 227.062 114.032 284.042 60.7121 324.742C38.1321 341.982 10.6421 365.102 15.5821 396.012C18.2421 412.612 29.9121 424.832 38.5821 438.352C56.7721 466.662 62.6721 505.142 54.0021 539.032C44.1421 577.592 16.5821 613.572 25.1121 652.562C30.3721 676.562 48.2321 693.642 65.4021 708.322C92.1887 731.209 119.829 752.649 148.322 772.642C167.422 786.042 187.742 799.082 210.002 800.782C229.602 802.282 248.802 794.832 267.412 787.482C283.672 781.052 300.342 774.362 313.472 761.482C322.042 753.072 328.872 742.222 338.392 735.342C360.752 719.182 389.472 729.422 415.112 736.342C475.612 752.582 540.362 746.652 597.932 719.602C686.242 678.102 753.552 590.952 839.932 544.192C877.072 524.082 917.472 511.602 951.862 485.702C971.237 470.956 987.887 452.938 1001.06 432.462C1027.06 392.352 1041.12 341.212 1037.06 291.152C1033 241.092 1010.25 192.852 974.522 164.592C936.272 134.342 887.962 128.692 844.442 110.532C799.502 91.7721 759.522 59.5322 715.012 39.4022C678.996 23.1588 639.8 15.185 600.3 16.0658C560.8 16.9466 521.998 26.6596 486.742 44.4922C438.302 68.9922 389.202 126.152 335.252 130.492C296.812 133.492 219.822 95.0122 189.802 131.432Z" fill="url(#paint0_linear)"/>
<g id="man-bike">
<path id="Vector_2" d="M387 554.303L344.293 512.159L330.947 525.683L373.654 567.827L387 554.303Z" fill="#5B5F78"/>
<path id="Vector_3" d="M354.48 491.99C354.48 491.99 379.27 478.91 388.85 470.49C394.617 465.444 400.818 460.917 407.38 456.96L438.48 438.03L503.48 433.03L506.48 444.03C506.48 444.03 511.48 460.03 461.48 474.03C411.48 488.03 386.48 510.03 386.48 510.03C386.48 510.03 354.48 520.99 354.48 491.99Z" fill="#DB8B8B"/>
<path id="Vector_4" opacity="0.1" d="M389.13 507.86C387.36 509.21 386.48 509.99 386.48 509.99C386.48 509.99 354.48 520.99 354.48 491.99C354.48 491.99 356.03 491.17 358.48 489.8C360.955 493.831 364.423 497.16 368.551 499.469C372.679 501.778 377.33 502.99 382.06 502.99H385.45L389.13 507.86Z" fill="black"/>
<path id="Vector_5" opacity="0.05" d="M505.54 449.55C502.76 455.44 493.17 465.12 461.48 473.99C420.87 485.36 396.75 501.99 389.13 507.86C387.36 509.21 386.48 509.99 386.48 509.99C386.48 509.99 354.48 520.99 354.48 491.99C354.48 491.99 356.03 491.17 358.48 489.8C365.91 485.73 381.64 476.8 388.82 470.45C394.586 465.403 400.787 460.875 407.35 456.92L438.45 437.99L450.03 437.1L503.45 432.99L506.45 443.99C506.45 443.99 507.15 446.14 505.54 449.55Z" fill="black"/>
<path id="Vector_6" d="M354.98 485.49L328.48 502.99L406.08 567.99C406.08 567.99 417.48 560.99 411.48 552.99C411.48 552.99 391.48 535.99 390.48 511.99L384.48 503.99H381.09C375.358 503.991 369.767 502.211 365.089 498.897C360.412 495.583 356.88 490.898 354.98 485.49Z" fill="#5B5F78"/>
<path id="Vector_7" opacity="0.1" d="M505.54 449.55C489.54 441.82 450.48 440.99 450.48 440.99L450.06 437.1L503.48 432.99L506.48 443.99C506.48 443.99 507.15 446.14 505.54 449.55Z" fill="black"/>
<path id="Vector_8" d="M450.48 438.99C450.48 438.99 497.48 439.99 509.48 449.99L503.48 328.99H438.48L450.48 438.99Z" fill="#ABB1D1"/>
<path id="Vector_9" opacity="0.05" d="M450.48 438.49C450.48 438.49 497.48 439.49 509.48 449.49L503.48 328.49H438.48L450.48 438.49Z" fill="black"/>
<path id="Vector_10" d="M488.24 364.95C488.24 364.95 605.89 360.95 608.29 376.16C610.69 391.37 490.64 384.96 490.64 384.96C490.64 384.96 481.04 375.35 488.24 364.95Z" fill="#535461"/>
<path id="Vector_11" opacity="0.05" d="M488.24 364.95C488.24 364.95 605.89 360.95 608.29 376.16C610.69 391.37 490.64 384.96 490.64 384.96C490.64 384.96 481.04 375.35 488.24 364.95Z" fill="black"/>
<path id="Vector_12" d="M393 425.78H372.19V606.66H393V425.78Z" fill="#5B5F78"/>
<path id="Vector_13" opacity="0.1" d="M393 425.77V439.7C386.08 440.6 379 441.17 372.19 441.39V425.77H393Z" fill="black"/>
<path id="Vector_14" d="M391.44 410.78C388.52 410.554 385.616 410.164 382.74 409.61C371.46 407.45 343.02 402.92 335.37 410.61C325.77 420.21 328.97 437.02 354.58 439.42C380.19 441.82 424.21 435.42 433.02 425.81C433.02 425.77 417.09 412.75 391.44 410.78Z" fill="#535461"/>
<path id="Vector_15" d="M387.4 475.4L605.9 407.37L613.1 424.18L389 501.01L387.4 475.4Z" fill="#5B5F78"/>
<path id="Vector_16" d="M452 582.27L609.67 427L618.47 439.8L468 596.67L452 582.27Z" fill="#5B5F78"/>
<path id="Vector_17" opacity="0.1" d="M653.58 529.85C648.584 531.142 643.712 532.872 639.02 535.02L629.46 508.31C634.477 506.123 639.644 504.295 644.92 502.84L653.58 529.85Z" fill="black"/>
<path id="Vector_18" d="M680.33 608.26L669.13 614.66L590.99 396.33L587.49 386.56L605.9 376.15L610.51 390.53L680.33 608.26Z" fill="#5B5F78"/>
<path id="Vector_19" opacity="0.1" d="M610.51 390.53L590.99 396.33L587.49 386.56L605.9 376.15L610.51 390.53Z" fill="black"/>
<path id="Vector_20" d="M491.44 407.37L601.09 369.75C601.09 369.75 620.3 372.15 613.09 388.16L502.65 420.97C502.65 420.97 485.85 422.57 491.44 407.37Z" fill="#535461"/>
<path id="Vector_21" opacity="0.1" d="M367.79 615.86C367.789 621.994 367.314 628.119 366.37 634.18C356.77 633.49 346.85 632.49 337.13 631.49C339.289 619.599 339.021 607.394 336.34 595.61C345.81 593.61 355.48 591.7 364.92 589.97C366.833 598.467 367.795 607.15 367.79 615.86Z" fill="black"/>
<path id="Vector_22" opacity="0.1" d="M393 585.38V606.65H372.19V588.65C379.39 587.4 386.39 586.29 393 585.38Z" fill="black"/>
<path id="Vector_23" d="M258.17 615.03C258.17 615.03 426.25 571.03 439.85 587.82C453.45 604.61 467.86 627.03 425.48 635.03C383.1 643.03 255 621.42 255 621.42L258.17 615.03Z" fill="#535461"/>
<path id="Vector_24" opacity="0.1" d="M341.21 541.37L319.85 560.92C316.067 556.064 311.791 551.614 307.09 547.64L327.03 526.81C332.164 531.249 336.908 536.12 341.21 541.37Z" fill="black"/>
<path id="Vector_25" d="M252.94 606.66L378.59 475.4L382.6 505.81L259.34 618.66L252.94 606.66Z" fill="#5B5F78"/>
<path id="Vector_26" opacity="0.1" d="M251.34 628.27C258.415 628.27 264.15 622.535 264.15 615.46C264.15 608.385 258.415 602.65 251.34 602.65C244.265 602.65 238.53 608.385 238.53 615.46C238.53 622.535 244.265 628.27 251.34 628.27Z" fill="black"/>
<path id="Vector_27" opacity="0.1" d="M448.22 628.27C462.364 628.27 473.83 616.804 473.83 602.66C473.83 588.516 462.364 577.05 448.22 577.05C434.076 577.05 422.61 588.516 422.61 602.66C422.61 616.804 434.076 628.27 448.22 628.27Z" fill="black"/>
<path id="Vector_28" d="M449.83 628.27C463.974 628.27 475.44 616.804 475.44 602.66C475.44 588.516 463.974 577.05 449.83 577.05C435.686 577.05 424.22 588.516 424.22 602.66C424.22 616.804 435.686 628.27 449.83 628.27Z" fill="#535461"/>
<path id="Vector_29" d="M442.992 600.736L442.984 600.742C439.977 602.991 439.362 607.253 441.611 610.26L461.937 637.441C464.186 640.448 468.448 641.063 471.455 638.814L471.463 638.808C474.471 636.559 475.085 632.297 472.836 629.29L452.51 602.109C450.261 599.102 446 598.487 442.992 600.736Z" fill="#6C63FF"/>
<path id="Vector_30" d="M565.48 246.99L563.1 277.1C562.826 280.914 562.876 284.744 563.25 288.55C563.56 291.92 563.25 297.82 559.95 306.82C555.713 318.317 553.523 330.467 553.48 342.72V376.99L530.48 372.99C530.48 372.99 531.48 324.99 527.48 316.99C523.48 308.99 530.48 237.99 530.48 237.99L565.48 246.99Z" fill="#DB8B8B"/>
<path id="Vector_31" opacity="0.05" d="M564.3 261.91L563.1 277.1C562.83 280.911 562.883 284.738 563.26 288.54C563.57 291.91 563.26 297.81 559.96 306.82C555.723 318.317 553.533 330.467 553.49 342.72V376.99L530.49 372.99C530.49 372.99 531.49 324.99 527.49 316.99C524.66 311.32 527.34 274.05 529.15 252.78C529.9 244.03 530.49 237.99 530.49 237.99L565.49 246.99L564.3 261.91Z" fill="black"/>
<path id="Vector_32" d="M451.5 476.99L442.85 526.19C441.759 532.759 440.086 539.218 437.85 545.49C432.78 559.35 436.02 578.78 438.48 589.38C439.57 594.06 440.48 597.02 440.48 597.02L414.48 611.02L406.48 605.02V601.02L405.48 512.02C399.48 498.02 401.48 477.02 405.48 469.02C406.617 466.392 407.417 463.63 407.86 460.8C409.86 450.08 410.48 435.02 410.48 435.02C410.48 435.02 426.48 408.02 445.48 426.02C452.48 432.65 455.14 441.32 455.7 449.62C456.68 463.83 451.5 476.99 451.5 476.99Z" fill="#DB8B8B"/>
<path id="Vector_33" opacity="0.1" d="M455.7 449.59C441.83 457.83 417.7 460.16 407.86 460.77C409.86 450.05 410.48 434.99 410.48 434.99C410.48 434.99 426.48 407.99 445.48 425.99C452.48 432.62 455.14 441.29 455.7 449.59Z" fill="black"/>
<path id="Vector_34" d="M489.48 424.99C478.846 430.653 468.797 437.352 459.48 444.99C443.48 457.99 403.48 458.99 403.48 458.99V443.99C404.48 425.99 387.48 405.99 364.48 349.99C349.79 314.23 353.86 293.99 358.72 283.99C361.48 278.34 364.48 275.99 364.48 275.99L489.48 299.99L493.95 313.39L503.48 341.99C503.48 341.99 468.48 343.99 462.48 346.99C456.48 349.99 460.48 376.99 460.48 376.99C454.48 404.99 489.48 424.99 489.48 424.99Z" fill="#ABB1D1"/>
<path id="Vector_35" opacity="0.1" d="M565.48 246.99L564.3 261.91C546.9 266.91 534.48 250.99 534.48 250.99C532.665 251.477 530.882 252.074 529.14 252.78C529.89 244.03 530.48 237.99 530.48 237.99L565.48 246.99Z" fill="black"/>
<path id="Vector_36" opacity="0.1" d="M493.95 313.39C493.48 318.06 493.48 320.99 493.48 320.99C493.48 320.99 470.48 339.99 431.48 310.99C392.48 281.99 357.48 289.99 357.48 289.99C357.48 289.99 357.89 287.67 358.72 283.99C361.48 278.34 364.48 275.99 364.48 275.99L489.48 299.99L493.95 313.39Z" fill="black"/>
<path id="Vector_37" d="M578.96 207.94C576.35 228.29 575.48 253.94 575.48 253.94C552.48 271.94 534.48 248.94 534.48 248.94C512.76 254.77 502.55 273.78 497.74 290.37C495.164 299.344 493.732 308.607 493.48 317.94C493.48 317.94 487.4 322.94 476.2 323.94C465.61 324.83 450.43 322.07 431.48 307.94C392.48 278.94 357.48 286.94 357.48 286.94C357.48 286.94 364.48 246.94 380.48 234.94C396.48 222.94 408.48 207.94 428.48 161.94C448.48 115.94 489.48 126.94 489.48 126.94C489.48 126.94 491.48 117.94 528.48 126.94C537.492 129.302 545.834 133.721 552.85 139.85C572.64 156.49 582.24 182.3 578.96 207.94Z" fill="white"/>
<path id="Vector_38" d="M541.85 149.49C541.8 150.82 541.69 152.3 541.51 153.95C539.51 171.95 537.51 169.95 515.51 173.95C501.83 176.44 494.72 165.01 491.3 156.01C490.062 152.75 489.128 149.382 488.51 145.95L536.51 137.95C536.51 137.95 542.26 136.34 541.85 149.49Z" fill="#DB8B8B"/>
<path id="Vector_39" opacity="0.05" d="M497.74 290.42C495.164 299.394 493.732 308.657 493.48 317.99C493.48 317.99 487.4 322.99 476.2 323.99C475.884 323.353 475.643 322.682 475.48 321.99C473.48 312.99 458.48 296.99 458.48 296.99C448.48 287.99 446.48 271.99 446.48 271.99L429.98 223.49L424.48 218.99C424.48 218.99 447.48 200.99 467.48 215.99C487.48 230.99 481.48 262.99 481.48 262.99L485.48 273.99C489.63 277.49 493.85 283.66 497.74 290.42Z" fill="black"/>
<path id="Vector_40" d="M427.48 217.99L449.48 270.99C449.48 270.99 451.48 286.99 461.48 295.99C461.48 295.99 476.48 311.99 478.48 320.99C480.48 329.99 508.48 353.99 508.48 353.99C508.48 353.99 534.48 377.99 536.48 386.99C536.48 386.99 560.48 393.99 557.48 407.99C557.48 407.99 575.48 389.99 557.48 372.99C539.48 355.99 515.48 320.99 515.48 320.99C515.48 320.99 501.48 283.99 488.48 272.99L484.48 261.99C484.48 261.99 490.48 229.99 470.48 214.99C450.48 199.99 427.48 217.99 427.48 217.99Z" fill="#DB8B8B"/>
<path id="Vector_41" opacity="0.1" d="M440.48 596.99L414.48 610.99L406.48 604.99V600.99C415.464 600.352 424.193 597.718 432.03 593.28C434.43 591.92 436.69 590.58 438.5 589.4C439.55 594.03 440.48 596.99 440.48 596.99Z" fill="black"/>
<path id="Vector_42" opacity="0.1" d="M470.48 175.99L484.48 230.99C484.48 230.99 441.48 237.99 432.48 230.99C423.48 223.99 406.48 221.99 406.48 221.99C406.48 221.99 424.48 169.99 434.48 163.99C444.48 157.99 470.48 175.99 470.48 175.99Z" fill="black"/>
<path id="Vector_43" d="M470.48 173.99L484.48 228.99C484.48 228.99 441.48 235.99 432.48 228.99C423.48 221.99 406.48 219.99 406.48 219.99C406.48 219.99 424.48 167.99 434.48 161.99C444.48 155.99 470.48 173.99 470.48 173.99Z" fill="white"/>
<path id="Vector_44" opacity="0.1" d="M541.85 148.49C539.049 152.356 535.487 155.609 531.383 158.047C527.278 160.485 522.718 162.058 517.983 162.669C513.248 163.28 508.439 162.915 503.85 161.598C499.261 160.281 494.99 158.039 491.3 155.01C490.062 151.75 489.128 148.382 488.51 144.95L536.51 136.95C536.51 136.95 542.26 135.34 541.85 148.49Z" fill="black"/>
<path id="Vector_45" d="M548.48 126.99C548.48 136.273 544.793 145.175 538.229 151.739C531.665 158.303 522.763 161.99 513.48 161.99C504.197 161.99 495.295 158.303 488.731 151.739C482.168 145.175 478.48 136.273 478.48 126.99C478.48 126.41 478.48 125.83 478.48 125.25C478.711 115.967 482.62 107.157 489.346 100.756C496.073 94.3555 505.067 90.8893 514.35 91.12C523.633 91.3508 532.443 95.2595 538.844 101.986C545.245 108.713 548.711 117.707 548.48 126.99Z" fill="#DB8B8B"/>
<path id="Vector_46" opacity="0.1" d="M548.48 126.99C548.483 130.216 548.039 133.426 547.16 136.53C544.455 137.12 541.633 136.861 539.08 135.79C535.34 134.32 532.13 131.79 528.54 129.97C518.43 124.85 506.4 125.86 495.2 127.55C489.64 128.39 483.33 129.17 478.96 125.63C478.81 125.511 478.666 125.385 478.53 125.25C478.761 115.967 482.67 107.157 489.396 100.756C496.123 94.3555 505.117 90.8893 514.4 91.12C523.683 91.3508 532.493 95.2595 538.894 101.986C545.295 108.713 548.761 117.707 548.53 126.99H548.48Z" fill="black"/>
<path id="Vector_47" opacity="0.05" d="M384.98 234.49C384.98 234.49 410.98 241.49 418.98 259.49C426.98 277.49 448.62 280.78 448.62 280.78" fill="black"/>
<path id="Vector_48" d="M482.98 630.49H422.98V649.49H482.98V630.49Z" fill="#535461"/>
<path id="Vector_49" d="M431.99 595.23C437.36 592.23 442.07 589.23 442.48 587.99C442.48 587.99 456.03 602.29 468.1 606.73C472.159 608.229 476.044 610.16 479.69 612.49C484.47 615.49 491.29 619.02 497.48 619.02C497.48 619.02 511.48 631.02 484.48 633.02C457.48 635.02 394.48 628.02 394.48 628.02L398.48 603.02C410.167 603.705 421.804 601 431.99 595.23Z" fill="#ABB1D1"/>
</g>
<g id="hat">
<path id="Vector_50" d="M450.624 106.927C452.754 113.607 462.984 113.817 468.234 118.737C470.964 121.297 472.234 125.077 475.234 127.357C479.404 130.537 485.424 129.837 490.734 129.077C501.424 127.557 512.904 126.647 522.544 131.257C525.964 132.887 529.034 135.167 532.604 136.497C536.174 137.827 540.604 137.987 543.504 135.627C545.824 133.737 546.674 130.627 548.774 128.547C550.404 126.907 552.674 125.987 554.534 124.547C558.614 121.467 560.374 116.447 561.534 111.647C563.934 101.767 564.624 91.1167 560.534 81.7467C556.444 72.3767 546.604 64.7467 535.864 65.2367C532.574 65.3867 529.364 66.2367 526.084 66.5967C517.534 67.4667 509.084 64.5967 500.504 64.1067C498.015 63.8039 495.49 64.1483 493.174 65.1067C491.427 66.0775 489.92 67.4273 488.764 69.0567C484.836 74.2021 482.146 80.1836 480.904 86.5367C479.904 91.3267 479.854 95.6667 473.984 96.4067C467.314 97.2867 446.114 92.7967 450.624 106.927Z" fill="#472727"/>
</g>
<g id="right-wheel">
<path id="Vector_51" d="M684.42 719.39L678.16 621.49L678.03 621.28L671.71 623.48L642.62 708.29L596.37 675.49L670.06 622.08L670.13 621.87L670.55 621.72L675.3 618.27L598.06 574.96L579.13 595.76L582.13 615.26L670.93 616.84V618.84L580.45 617.22L577.05 595.11L602.94 566.66L641.66 521.49L642.35 523.36L650.55 514.36L681.09 519.83V518.62L683.09 518.68V520.19L728.45 528.31L686.12 612.96L679.95 617.43V617.93V618.49L777.76 584.41L766.15 675.62L683.15 622.75L680.23 621.11L729.17 700L684.42 719.39ZM680.42 625.05L686.27 716.43L726.32 699.05L680.42 625.05ZM599.85 675.49L641.64 705.12L668.98 625.38L599.85 675.49ZM682.17 619.83L684.26 621L764.61 672.2L775.41 587.33L682.17 619.83ZM675.07 612.63L677.58 616.68L678.02 616.36L681.02 521.83L651.28 516.49L643.12 525.49L675.07 612.63ZM599.68 573.58L674.52 615.58L673.22 613.45L641.64 527.18L604.44 568.06L599.68 573.58ZM683.05 522.19L680.05 614.88L684.57 611.6L725.48 529.78L683.05 522.19Z" fill="#535461"/>
<path id="Vector_52" d="M679.757 501C669.144 500.988 658.578 502.415 648.347 505.24C643.071 506.695 637.904 508.523 632.887 510.71C606.157 522.297 584.674 543.387 572.594 569.898C560.514 596.41 558.697 626.459 567.492 654.233C576.287 682.008 595.071 705.533 620.209 720.259C645.348 734.984 675.054 739.863 703.582 733.952C732.109 728.04 757.431 711.759 774.648 688.257C791.865 664.755 799.754 635.702 796.789 606.72C793.823 577.738 780.215 550.885 758.595 531.356C736.975 511.828 708.881 501.012 679.747 501H679.757ZM679.357 707.09C659.076 707.082 639.408 700.137 623.62 687.407C607.831 674.678 596.872 656.931 592.562 637.113C588.252 617.295 590.851 596.599 599.928 578.463C609.004 560.326 624.011 545.84 642.457 537.41C647.149 535.262 652.021 533.532 657.017 532.24C669.229 529.07 681.977 528.537 694.411 530.678C706.845 532.818 718.681 537.581 729.13 544.652C739.58 551.722 748.404 560.937 755.015 571.683C761.627 582.429 765.873 594.46 767.473 606.975C769.073 619.49 767.989 632.202 764.293 644.265C760.598 656.329 754.375 667.467 746.04 676.939C737.704 686.41 727.447 693.998 715.951 699.196C704.455 704.395 691.984 707.086 679.367 707.09H679.357Z" fill="#535461"/>
<path id="Vector_53" d="M678.93 630.67C686.005 630.67 691.74 624.935 691.74 617.86C691.74 610.785 686.005 605.05 678.93 605.05C671.855 605.05 666.12 610.785 666.12 617.86C666.12 624.935 671.855 630.67 678.93 630.67Z" fill="#535461"/>
</g>
<g id="left-wheel">
<path id="Vector_54" d="M255.725 717.778L249.455 619.838L249.325 619.628L243.005 621.828L213.925 706.678L167.675 673.888L241.345 620.478L241.415 620.268L241.835 620.118L246.585 616.668L169.345 573.358L150.425 594.158L153.425 613.658L242.245 615.278V617.278L151.765 615.658L148.345 593.518L174.245 565.058L212.995 519.858L213.685 521.728L221.885 512.728L252.345 518.188V516.978L254.345 517.038V518.548L299.705 526.668L257.415 611.278L251.245 615.748V616.248V616.808L349.045 582.728L337.435 673.938L254.435 621.068L251.515 619.428L300.455 698.308L255.725 717.778ZM251.725 623.438L257.575 714.818L297.625 697.438L251.725 623.438ZM171.145 673.868L212.935 703.498L240.275 623.758L171.145 673.868ZM253.465 618.208L255.555 619.378L335.905 670.578L346.705 585.708L253.465 618.208ZM246.365 611.008L248.875 615.058L249.315 614.738L252.315 520.208L222.575 514.888L214.415 523.888L246.365 611.008ZM170.945 571.948L245.785 613.948L244.485 611.818L212.905 525.548L175.715 566.418L170.945 571.948ZM254.345 520.558L251.345 613.278L255.865 609.998L296.775 528.178L254.345 520.558Z" fill="#535461"/>
<path id="Vector_55" d="M365.415 590.738C361.405 572.919 353.285 556.283 341.705 542.158C337.406 536.909 332.666 532.038 327.535 527.598C307.809 510.567 282.986 500.568 256.962 499.17C230.938 497.771 205.187 505.053 183.749 519.873C162.311 534.693 146.401 556.211 138.515 581.05C130.629 605.89 131.214 632.645 140.178 657.116C149.142 681.587 165.978 702.39 188.042 716.258C210.107 730.127 236.152 736.277 262.09 733.743C288.028 731.208 312.39 720.134 331.353 702.257C350.317 684.379 362.807 660.712 366.865 634.968C367.809 628.907 368.284 622.783 368.285 616.648C368.292 607.932 367.329 599.242 365.415 590.738ZM250.225 705.088C231.993 705.069 214.209 699.435 199.292 688.953C184.374 678.47 173.047 663.648 166.851 646.501C160.655 629.354 159.89 610.715 164.66 593.118C169.43 575.521 179.505 559.82 193.513 548.15C207.521 536.48 224.783 529.408 242.953 527.895C261.122 526.381 279.316 530.501 295.062 539.693C310.807 548.884 323.34 562.703 330.956 579.268C338.571 595.834 340.9 614.343 337.625 632.278C333.875 652.722 323.076 671.203 307.107 684.506C291.137 697.809 271.01 705.093 250.225 705.088Z" fill="#535461"/>
<path id="Vector_56" d="M250.225 629.058C257.3 629.058 263.035 623.323 263.035 616.248C263.035 609.174 257.3 603.438 250.225 603.438C243.15 603.438 237.415 609.174 237.415 616.248C237.415 623.323 243.15 629.058 250.225 629.058Z" fill="#535461"/>
</g>
</g>
<defs>
<linearGradient id="paint0_linear" x1="874" y1="98.0001" x2="258.5" y2="765" gradientUnits="userSpaceOnUse">
<stop offset="0.359375" stop-color="#00E0FF"/>
<stop offset="0.703125" stop-color="#9416F8"/>
</linearGradient>
<clipPath id="clip0">
<rect width="1057.7" height="784.98" fill="white"/>
</clipPath>
</defs>
</svg>
